<?xml version="1.0" encoding="UTF-8" standalone="no"?>
<!-- Created with Inkscape (http://www.inkscape.org/) -->

<svg xmlns:dc="http://purl.org/dc/elements/1.1/" xmlns:cc="http://creativecommons.org/ns#" xmlns:rdf="http://www.w3.org/1999/02/22-rdf-syntax-ns#" xmlns:svg="http://www.w3.org/2000/svg" xmlns="http://www.w3.org/2000/svg" version="1.1" width="400" height="400" id="svg2">
    <defs id="defs9" />
    <metadata id="metadata3">
        <rdf:RDF>
            <cc:Work rdf:about="">
                <dc:title>Five Elements and Pentagram</dc:title>
                <dc:description>Wiccan Five Elements "Spirit, Water, Fire, Earth, Air" with Pentagram.</dc:description>
                <dc:subject>
                    <rdf:Bag>
                        <rdf:li>symbol</rdf:li>
                        <rdf:li>pentagram</rdf:li>
                        <rdf:li>wicca</rdf:li>
                        <rdf:li>witchcraft</rdf:li>
                        <rdf:li>witch</rdf:li>
                        <rdf:li>spirit</rdf:li>
                        <rdf:li>water</rdf:li>
                        <rdf:li>fire</rdf:li>
                        <rdf:li>earth</rdf:li>
                        <rdf:li>air</rdf:li>
                        <rdf:li>nature</rdf:li>
                        <rdf:li>pagan</rdf:li>
                        <rdf:li>magic</rdf:li>
                        <rdf:li>black</rdf:li>
                    </rdf:Bag>
                </dc:subject>
                <dc:publisher>
                    <cc:Agent rdf:about="http://www.openclipart.org">
                        <dc:title>Open Clip Art Library</dc:title>
                    </cc:Agent>
                </dc:publisher>
                <dc:creator>
                    <cc:Agent>
                        <dc:title>Jakub Jankiewicz</dc:title>
                    </cc:Agent>
                </dc:creator>
                <dc:rights>
                    <cc:Agent>
                        <dc:title>Jakub Jankiewicz</dc:title>
                    </cc:Agent>
                </dc:rights>
                <dc:date />
                <dc:format>image/svg+xml</dc:format>
                <dc:type rdf:resource="http://purl.org/dc/dcmitype/StillImage" />
                <cc:license rdf:resource="http://web.resource.org/cc/PublicDomain" />
                <dc:language>pl</dc:language>
            </cc:Work>
            <cc:License rdf:about="http://web.resource.org/cc/PublicDomain">
                <cc:permits rdf:resource="http://web.resource.org/cc/Reproduction" />
                <cc:permits rdf:resource="http://web.resource.org/cc/Distribution" />
                <cc:permits rdf:resource="http://web.resource.org/cc/DerivativeWorks" />
            </cc:License>
        </rdf:RDF>
    </metadata>
    <path d="M 165.34375 42.03125 C 161.6682 42.03125 159.5625 43.736303 159.5625 46.71875 C 159.5625 49.113109 160.73529 50.234658 163.84375 50.84375 L 166 51.25 C 168.10031 51.670063 168.875 52.135814 168.875 53.375 C 168.875 54.656192 167.69254 55.3125 165.78125 55.3125 C 163.63893 55.3125 162.34375 54.419496 162.34375 52.78125 L 159.28125 52.78125 C 159.28125 56.057741 161.71841 57.84375 165.625 57.84375 C 169.57359 57.84375 171.90625 56.077216 171.90625 52.96875 C 171.90625 50.553388 170.67918 49.421082 167.84375 48.875 L 165.46875 48.4375 C 163.22142 47.996434 162.5625 47.550667 162.5625 46.4375 C 162.5625 45.282327 163.6015 44.53125 165.21875 44.53125 C 167.21404 44.53125 168.40625 45.383267 168.40625 46.9375 L 171.34375 46.9375 C 171.34375 43.703015 169.08231 42.03125 165.34375 42.03125 z M 174.21875 42.28125 L 174.21875 57.59375 L 177.375 57.59375 L 177.375 52.125 L 181.3125 52.125 C 184.12692 52.125 185.9375 50.139716 185.9375 47.03125 C 185.9375 43.96479 184.19248 42.28125 181 42.28125 L 174.21875 42.28125 z M 188 42.28125 L 188 57.59375 L 191.15625 57.59375 L 191.15625 42.28125 L 188 42.28125 z M 194.1875 42.28125 L 194.1875 57.59375 L 197.3125 57.59375 L 197.3125 51.5 L 200.9375 51.5 C 202.30271 51.5 202.875 52.062558 202.875 53.34375 L 202.84375 54.96875 C 202.84375 56.396964 202.94468 56.85864 203.34375 57.59375 L 206.71875 57.59375 L 206.71875 57.03125 C 206.23568 56.758209 206.03125 56.422101 206.03125 55.75 C 205.94725 51.234323 205.85955 51.027626 203.90625 50.1875 C 205.62851 49.515399 206.5 48.27553 206.5 46.40625 C 206.5 44.032894 205.08441 42.28125 202.375 42.28125 L 194.1875 42.28125 z M 209 42.28125 L 209 57.59375 L 212.15625 57.59375 L 212.15625 42.28125 L 209 42.28125 z M 213.78125 42.28125 L 213.78125 44.90625 L 218.4375 44.90625 L 218.4375 57.59375 L 221.59375 57.59375 L 221.59375 44.90625 L 226.0625 44.90625 L 226.0625 42.28125 L 213.78125 42.28125 z M 177.375 44.90625 L 180.3125 44.90625 C 181.99275 44.90625 182.78125 45.643514 182.78125 47.21875 C 182.78125 48.772983 181.99275 49.5 180.3125 49.5 L 177.375 49.5 L 177.375 44.90625 z M 197.3125 44.90625 L 201.125 44.90625 C 202.84726 44.90625 203.34375 45.520552 203.34375 46.84375 C 203.34375 48.208955 202.91027 48.875 201.125 48.875 L 197.3125 48.875 L 197.3125 44.90625 z M 192.65625 65.65625 C 181.89855 65.65625 173.15625 74.4298 173.15625 85.1875 C 173.15625 95.9452 181.89855 104.71875 192.65625 104.71875 C 203.41395 104.71875 212.1875 95.9452 212.1875 85.1875 C 212.1875 74.4298 203.41395 65.65625 192.65625 65.65625 z M 192.65625 69.65625 C 201.25219 69.65625 208.1875 76.59156 208.1875 85.1875 C 208.1875 93.78344 201.25219 100.71875 192.65625 100.71875 C 184.06031 100.71875 177.15625 93.78344 177.15625 85.1875 C 177.15625 76.59156 184.06031 69.65625 192.65625 69.65625 z M 191.28125 113.21875 L 189.40625 119.09375 L 169.59375 181 L 103.875 182.09375 L 97.78125 182.21875 L 102.75 185.75 L 155.9375 223.625 L 136.0625 285.6875 L 134.15625 291.625 L 139.15625 287.90625 L 191.53125 248.96875 L 244.1875 286.46875 L 249.125 289.96875 L 247.25 284.1875 L 227.09375 222.5625 L 280.59375 182.78125 L 285.59375 179.0625 L 279.375 179.15625 L 213.25 180.25 L 193.21875 119.0625 L 191.28125 113.21875 z M 59.8125 121.25 L 54.375 136.5625 L 57.59375 136.5625 L 58.625 133.5 L 64.34375 133.5 L 65.34375 136.5625 L 68.59375 136.5625 L 63.28125 121.25 L 59.8125 121.25 z M 70.3125 121.25 L 70.3125 136.5625 L 73.46875 136.5625 L 73.46875 121.25 L 70.3125 121.25 z M 76.5 121.25 L 76.5 136.5625 L 79.65625 136.5625 L 79.65625 130.5 L 83.28125 130.5 C 84.646455 130.5 85.21875 131.06255 85.21875 132.34375 L 85.1875 133.9375 C 85.1875 135.36571 85.257188 135.82739 85.65625 136.5625 L 89.03125 136.5625 L 89.03125 136 C 88.548177 135.72696 88.375 135.4221 88.375 134.75 C 88.29099 130.23432 88.203293 130.02763 86.25 129.1875 C 87.972258 128.5154 88.84375 127.27553 88.84375 125.40625 C 88.84375 123.03289 87.428156 121.25 84.71875 121.25 L 76.5 121.25 z M 79.65625 123.875 L 83.46875 123.875 C 85.191008 123.875 85.6875 124.52055 85.6875 125.84375 C 85.6875 127.20895 85.254017 127.875 83.46875 127.875 L 79.65625 127.875 L 79.65625 123.875 z M 61.5 124.875 L 63.5 130.875 L 59.5 130.875 L 61.5 124.875 z M 191.34375 126.1875 L 209.03125 180.34375 L 173.8125 180.9375 L 191.34375 126.1875 z M 275.6875 133.78125 L 280 149.09375 L 282.84375 149.09375 L 285.34375 137.125 L 287.90625 149.09375 L 290.75 149.09375 L 295 133.78125 L 291.65625 133.78125 L 289.34375 145.25 L 286.875 133.78125 L 283.78125 133.78125 L 281.40625 145.25 L 279.03125 133.78125 L 275.6875 133.78125 z M 300.0625 133.78125 L 294.625 149.09375 L 297.84375 149.09375 L 298.875 146 L 304.59375 146 L 305.59375 149.09375 L 308.84375 149.09375 L 303.5625 133.78125 L 300.0625 133.78125 z M 307.875 133.78125 L 307.875 136.40625 L 312.5 136.40625 L 312.5 149.09375 L 315.65625 149.09375 L 315.65625 136.40625 L 320.125 136.40625 L 320.125 133.78125 L 307.875 133.78125 z M 322.0625 133.78125 L 322.0625 149.09375 L 333.53125 149.09375 L 333.53125 146.46875 L 325.21875 146.46875 L 325.21875 142.5 L 332.5625 142.5 L 332.5625 139.875 L 325.21875 139.875 L 325.21875 136.40625 L 333.125 136.40625 L 333.125 133.78125 L 322.0625 133.78125 z M 336.125 133.78125 L 336.125 149.09375 L 339.28125 149.09375 L 339.28125 143 L 342.875 143 C 344.2402 143 344.84375 143.56256 344.84375 144.84375 L 344.78125 146.46875 C 344.78125 147.89696 344.88217 148.35864 345.28125 149.09375 L 348.65625 149.09375 L 348.65625 148.5 C 348.17318 148.22696 348 147.9221 348 147.25 C 347.916 142.73432 347.82829 142.52762 345.875 141.6875 C 347.59725 141.0154 348.4375 139.77553 348.4375 137.90625 C 348.4375 135.53289 347.05316 133.78125 344.34375 133.78125 L 336.125 133.78125 z M 339.28125 136.40625 L 343.0625 136.40625 C 344.78476 136.40625 345.3125 137.02055 345.3125 138.34375 C 345.3125 139.70896 344.84777 140.375 343.0625 140.375 L 339.28125 140.375 L 339.28125 136.40625 z M 301.75 137.375 L 303.75 143.375 L 299.75 143.375 L 301.75 137.375 z M 73.15625 145.125 L 71.4375 148.125 L 51.59375 182.46875 L 49.875 185.46875 L 53.34375 185.46875 L 92.96875 185.46875 L 96.4375 185.46875 L 94.71875 182.46875 L 74.90625 148.125 L 73.15625 145.125 z M 73.15625 153.125 L 81.4375 167.4375 L 64.90625 167.4375 L 73.15625 153.125 z M 288.875 158.5625 L 290.625 161.5625 L 310.4375 195.90625 L 312.15625 198.90625 L 313.90625 195.90625 L 333.71875 161.5625 L 335.4375 158.5625 L 332 158.5625 L 292.34375 158.5625 L 288.875 158.5625 z M 295.8125 162.5625 L 328.53125 162.5625 L 312.15625 190.90625 L 295.8125 162.5625 z M 62.59375 171.4375 L 63.875 171.4375 L 82.90625 171.4375 L 83.75 171.4375 L 89.53125 181.46875 L 56.8125 181.46875 L 62.59375 171.4375 z M 273.25 183.25 L 225.78125 218.53125 L 214.53125 184.25 L 273.25 183.25 z M 210.34375 184.3125 L 222.375 221.0625 L 191.5 244.03125 L 160.65625 222.0625 L 172.53125 184.9375 L 210.34375 184.3125 z M 168.3125 185.03125 L 157.21875 219.625 L 110 186 L 168.3125 185.03125 z M 223.6875 225.0625 L 241.5625 279.65625 L 194.90625 246.46875 L 223.6875 225.0625 z M 159.34375 226.0625 L 188.125 246.53125 L 141.78125 280.96875 L 159.34375 226.0625 z M 266.53125 295.3125 L 264.78125 298.34375 L 244.96875 332.65625 L 243.25 335.65625 L 246.6875 335.65625 L 286.34375 335.65625 L 289.8125 335.65625 L 288.0625 332.65625 L 268.25 298.34375 L 266.53125 295.3125 z M 95.53125 297.3125 L 97.25 300.3125 L 117.0625 334.65625 L 118.8125 337.65625 L 120.53125 334.65625 L 140.34375 300.3125 L 142.09375 297.3125 L 138.625 297.3125 L 99 297.3125 L 95.53125 297.3125 z M 102.4375 301.3125 L 135.15625 301.3125 L 129.375 311.34375 L 128.5625 311.34375 L 109.5 311.34375 L 108.21875 311.34375 L 102.4375 301.3125 z M 266.53125 303.3125 L 282.875 331.65625 L 250.15625 331.65625 L 266.53125 303.3125 z M 110.53125 315.34375 L 127.0625 315.34375 L 118.8125 329.65625 L 110.53125 315.34375 z M 81.96875 342.65625 L 81.96875 357.96875 L 93.4375 357.96875 L 93.4375 355.34375 L 85.125 355.34375 L 85.125 351.375 L 92.46875 351.375 L 92.46875 348.75 L 85.125 348.75 L 85.125 345.28125 L 93.03125 345.28125 L 93.03125 342.65625 L 81.96875 342.65625 z M 100.34375 342.65625 L 94.90625 357.96875 L 98.09375 357.96875 L 99.125 354.90625 L 104.875 354.90625 L 105.875 357.96875 L 109.125 357.96875 L 103.8125 342.65625 L 100.34375 342.65625 z M 111.21875 342.65625 L 111.21875 357.96875 L 114.34375 357.96875 L 114.34375 351.90625 L 117.96875 351.90625 C 119.33395 351.90625 119.90625 352.46881 119.90625 353.75 L 119.875 355.34375 C 119.875 356.77197 119.97593 357.23364 120.375 357.96875 L 123.75 357.96875 L 123.75 357.40625 C 123.26693 357.13321 123.0625 356.82835 123.0625 356.15625 C 122.9785 351.64058 122.89079 351.43388 120.9375 350.59375 C 122.65976 349.92165 123.53125 348.68178 123.53125 346.8125 C 123.53125 344.43915 122.11565 342.65625 119.40625 342.65625 L 111.21875 342.65625 z M 125 342.65625 L 125 345.28125 L 129.625 345.28125 L 129.625 357.96875 L 132.78125 357.96875 L 132.78125 345.28125 L 137.25 345.28125 L 137.25 342.65625 L 125 342.65625 z M 138.96875 342.65625 L 138.96875 357.96875 L 142.125 357.96875 L 142.125 351.03125 L 148.1875 351.03125 L 148.1875 357.96875 L 151.34375 357.96875 L 151.34375 342.65625 L 148.1875 342.65625 L 148.1875 348.40625 L 142.125 348.40625 L 142.125 342.65625 L 138.96875 342.65625 z M 243.84375 342.65625 L 243.84375 357.96875 L 246.96875 357.96875 L 246.96875 351.375 L 253.6875 351.375 L 253.6875 348.75 L 246.96875 348.75 L 246.96875 345.28125 L 254.59375 345.28125 L 254.59375 342.65625 L 243.84375 342.65625 z M 256.4375 342.65625 L 256.4375 357.96875 L 259.59375 357.96875 L 259.59375 342.65625 L 256.4375 342.65625 z M 262.625 342.65625 L 262.625 357.96875 L 265.78125 357.96875 L 265.78125 351.90625 L 269.375 351.90625 C 270.74021 351.90625 271.34375 352.46881 271.34375 353.75 L 271.28125 355.34375 C 271.28125 356.77197 271.38217 357.23364 271.78125 357.96875 L 275.15625 357.96875 L 275.15625 357.40625 C 274.67317 357.13321 274.5 356.82835 274.5 356.15625 C 274.416 351.64058 274.3283 351.43388 272.375 350.59375 C 274.09726 349.92165 274.9375 348.68178 274.9375 346.8125 C 274.9375 344.43915 273.55316 342.65625 270.84375 342.65625 L 262.625 342.65625 z M 277.78125 342.65625 L 277.78125 357.96875 L 289.21875 357.96875 L 289.21875 355.34375 L 280.9375 355.34375 L 280.9375 351.375 L 288.25 351.375 L 288.25 348.75 L 280.9375 348.75 L 280.9375 345.28125 L 288.84375 345.28125 L 288.84375 342.65625 L 277.78125 342.65625 z M 114.34375 345.28125 L 118.15625 345.28125 C 119.87851 345.28125 120.375 345.9268 120.375 347.25 C 120.375 348.6152 119.94152 349.28125 118.15625 349.28125 L 114.34375 349.28125 L 114.34375 345.28125 z M 265.78125 345.28125 L 269.5625 345.28125 C 271.28476 345.28125 271.8125 345.9268 271.8125 347.25 C 271.8125 348.6152 271.34777 349.28125 269.5625 349.28125 L 265.78125 349.28125 L 265.78125 345.28125 z M 102 346.28125 L 104 352.28125 L 100.03125 352.28125 L 102 346.28125 z " fill="#000000"/>
</svg>
